<svg width="12" height="12" viewBox="0 0 12 12" fill="none" xmlns="http://www.w3.org/2000/svg">
  <path
    d="M5.66348 1.00533C5.62378 1.00951 5.50062 1.02409 5.39215 1.03664C4.70124 1.11588 3.92053 1.39135 3.31727 1.77308C2.7286 2.14656 2.14207 2.73278 1.7684 3.32114C1.59095 3.60283 1.35514 4.09941 1.25075 4.41444C1.0731 4.95487 0.998 5.41595 1.00004 6.00014C1.00004 6.80961 1.15657 7.48568 1.50942 8.20122C2.00411 9.20895 2.77656 9.98293 3.77431 10.4753C4.12502 10.6485 4.39216 10.7507 4.69491 10.83C5.44225 11.024 6.1749 11.0511 6.91602 10.9156C8.94284 10.5401 10.5398 8.94399 10.9155 6.91812C11.0512 6.17749 11.024 5.44512 10.8299 4.69827C10.7506 4.39578 10.6482 4.12868 10.475 3.77815C9.74232 2.29261 8.33948 1.28283 6.67582 1.04296C6.46918 1.01369 5.80541 0.988704 5.66348 1.00533ZM4.27951 2.78714C4.32961 2.79969 4.43185 2.81631 4.50706 2.82681C4.68236 2.8519 4.7492 2.91024 4.80552 3.08759C4.88899 3.34215 5.14991 4.36447 5.15828 4.46666C5.1645 4.56263 5.15828 4.58354 5.08103 4.69613C5.03511 4.76497 4.91613 4.89225 4.81379 4.97782C4.50277 5.24492 4.50899 5.2386 4.52155 5.33671C4.52777 5.38464 4.58838 5.53701 4.65726 5.67674C5.04971 6.4758 5.52562 7.00991 6.26878 7.48557C6.57775 7.67955 6.62367 7.68588 6.80316 7.53361C6.87 7.47731 7.03489 7.32495 7.16642 7.19767C7.30836 7.06202 7.43152 6.95983 7.46703 6.95147C7.51091 6.94107 7.55887 6.95361 7.65489 6.99736C7.8156 7.07243 8.90947 7.80265 8.95121 7.86323C8.99498 7.92789 8.9909 8.03426 8.93029 8.24089C8.81335 8.64353 8.66315 8.83343 8.3207 9.01079C8.02846 9.16102 7.82183 9.21313 7.48152 9.21945C7.20602 9.22364 7.19142 9.2216 6.98887 9.15061C6.75092 9.06923 6.05164 8.72288 5.72592 8.52676C4.96195 8.06353 4.26889 7.31668 3.72818 6.37575C3.55288 6.06908 3.29196 5.54538 3.20635 5.32631C2.8786 4.47502 2.97676 3.70105 3.484 3.16276C3.79727 2.83089 4.01849 2.72666 4.27951 2.78714Z"
    fill="currentColor" />
</svg>