<svg width="12" height="12" viewBox="0 0 12 12" fill="none" xmlns="http://www.w3.org/2000/svg">
  <path
    d="M10 1.99999H2C1.4485 1.99999 1 2.44849 1 2.99999V8.99999C1 9.55149 1.4485 9.99999 2 9.99999H10C10.5515 9.99999 11 9.55149 11 8.99999V2.99999C11 2.44849 10.5515 1.99999 10 1.99999ZM10 2.99999V3.25549L6 6.36699L2 3.25599V2.99999H10ZM2 8.99999V4.52199L5.693 7.39449C5.783 7.46499 5.8915 7.49999 6 7.49999C6.1085 7.49999 6.217 7.46499 6.307 7.39449L10 4.52199L10.001 8.99999H2Z"
    fill="currentColor" />
</svg>