<svg width="12" height="12" viewBox="0 0 12 12" fill="none" xmlns="http://www.w3.org/2000/svg">
  <path fill-rule="evenodd" clip-rule="evenodd"
    d="M6 1C3.2375 1 1 3.29409 1 6.12647C1 8.39493 2.43125 10.3109 4.41875 10.9902C4.66875 11.0351 4.7625 10.8813 4.7625 10.7467C4.7625 10.6249 4.75625 10.2212 4.75625 9.79189C3.5 10.029 3.175 9.4779 3.075 9.18953C3.01875 9.04215 2.775 8.58717 2.5625 8.46542C2.3875 8.3693 2.1375 8.1322 2.55625 8.12579C2.95 8.11938 3.23125 8.49746 3.325 8.65126C3.775 9.42663 4.49375 9.20876 4.78125 9.07419C4.825 8.74097 4.95625 8.51669 5.1 8.38852C3.9875 8.26036 2.825 7.8182 2.825 5.85733C2.825 5.29983 3.01875 4.83844 3.3375 4.47959C3.2875 4.35143 3.1125 3.82597 3.3875 3.12108C3.3875 3.12108 3.80625 2.98651 4.7625 3.64654C5.1625 3.53119 5.5875 3.47352 6.0125 3.47352C6.4375 3.47352 6.8625 3.53119 7.2625 3.64654C8.21875 2.9801 8.6375 3.12108 8.6375 3.12108C8.9125 3.82597 8.7375 4.35143 8.6875 4.47959C9.00625 4.83844 9.2 5.29342 9.2 5.85733C9.2 7.82461 8.03125 8.26036 6.91875 8.38852C7.1 8.54873 7.25625 8.85631 7.25625 9.33692C7.25625 10.0226 7.25 10.5737 7.25 10.7467C7.25 10.8813 7.34375 11.0415 7.59375 10.9902C9.56875 10.3109 11 8.38852 11 6.12647C11 3.29409 8.7625 1 6 1Z"
    fill="currentColor" />
</svg>