<svg width="12" height="12" viewBox="0 0 12 12" fill="none" xmlns="http://www.w3.org/2000/svg">
  <path
    d="M10 1.5H2C1.7235 1.5 1.5 1.724 1.5 2V10C1.5 10.276 1.7235 10.5 2 10.5H10C10.2765 10.5 10.5 10.276 10.5 10V2C10.5 1.724 10.2765 1.5 10 1.5ZM4.1695 9.1685H2.8335V4.8735H4.1695V9.1685ZM3.5015 4.287C3.0735 4.287 2.7275 3.94 2.7275 3.513C2.7275 3.086 3.073 2.739 3.5015 2.739C3.9285 2.739 4.2755 3.0855 4.2755 3.513C4.2755 3.9405 3.9285 4.287 3.5015 4.287ZM9.169 9.1685H7.8345V7.08C7.8345 6.582 7.8255 5.9415 7.1405 5.9415C6.4455 5.9415 6.34 6.4845 6.34 7.045V9.169H5.0065V4.874H6.2865V5.461H6.305C6.4825 5.1235 6.9185 4.7675 7.567 4.7675C8.919 4.7675 9.1685 5.6565 9.1685 6.8135L9.169 9.1685Z"
    fill="currentColor" />
</svg>